<svg width="25" height="24" viewBox="0 0 25 24" fill="none" xmlns="http://www.w3.org/2000/svg">
<rect width="24" height="24" transform="translate(0.521484)" fill="white"/>
<path fill-rule="evenodd" clip-rule="evenodd" d="M22.8267 11.871C22.8267 11.0816 22.7558 10.3225 22.6242 9.59375H12.1387V13.9003H18.1304C17.8723 15.292 17.0879 16.4711 15.9088 17.2606V20.054H19.5069C21.6121 18.1158 22.8267 15.2616 22.8267 11.871Z" fill="#4285F4"/>
<path fill-rule="evenodd" clip-rule="evenodd" d="M12.1396 22.7504C15.1456 22.7504 17.6658 21.7535 19.5078 20.0531L15.9097 17.2597C14.9128 17.9277 13.6375 18.3224 12.1396 18.3224C9.23985 18.3224 6.78546 16.3639 5.90998 13.7324H2.19043V16.617C4.02237 20.2555 7.78746 22.7504 12.1396 22.7504Z" fill="#34A853"/>
<path fill-rule="evenodd" clip-rule="evenodd" d="M5.90959 13.7324C5.68692 13.0644 5.56041 12.3509 5.56041 11.6171C5.56041 10.8833 5.68692 10.1697 5.90959 9.50173V6.61719H2.19004C1.43601 8.12019 1.00586 9.82055 1.00586 11.6171C1.00586 13.4136 1.43601 15.1139 2.19004 16.6169L5.90959 13.7324Z" fill="#FBBC05"/>
<path fill-rule="evenodd" clip-rule="evenodd" d="M12.1396 4.91241C13.7742 4.91241 15.2417 5.47413 16.3956 6.57734L19.5888 3.3841C17.6607 1.58759 15.1405 0.484375 12.1396 0.484375C7.78746 0.484375 4.02237 2.97925 2.19043 6.61783L5.90998 9.50237C6.78546 6.87086 9.23986 4.91241 12.1396 4.91241Z" fill="#EA4335"/>
</svg>
