<svg width="25" height="24" viewBox="0 0 25 24" fill="none" xmlns="http://www.w3.org/2000/svg">
<g clip-path="url(#clip0_680443_10420)">
<path d="M24.5215 22.125C24.5215 23.1606 23.682 24 22.6465 24H2.39648C1.36092 24 0.521484 23.1606 0.521484 22.125V1.875C0.521484 0.839438 1.36092 0 2.39648 0H22.6465C23.682 0 24.5215 0.839438 24.5215 1.875V22.125Z" fill="#FFE812"/>
<path d="M12.5215 3.375C7.13667 3.375 2.77148 6.81684 2.77148 11.0625C2.77148 13.8074 4.59642 16.2159 7.34161 17.576C7.19227 18.091 6.38189 20.8895 6.34964 21.1093C6.34964 21.1093 6.33023 21.2745 6.4372 21.3375C6.54417 21.4005 6.66998 21.3516 6.66998 21.3516C6.97673 21.3087 10.2271 19.0255 10.7897 18.6291C11.3518 18.7087 11.9305 18.75 12.5215 18.75C17.9063 18.75 22.2715 15.3082 22.2715 11.0625C22.2715 6.81684 17.9063 3.375 12.5215 3.375Z" fill="black"/>
<path d="M7.13086 13.7461C6.82064 13.7461 6.56836 13.5052 6.56836 13.2089V9.86719H5.69067C5.38627 9.86719 5.13867 9.62006 5.13867 9.31641C5.13867 9.01275 5.38636 8.76562 5.69067 8.76562H8.57105C8.87545 8.76562 9.12305 9.01275 9.12305 9.31641C9.12305 9.62006 8.87536 9.86719 8.57105 9.86719H7.69336V13.2089C7.69336 13.5052 7.44108 13.7461 7.13086 13.7461ZM12.0632 13.7388C11.8287 13.7388 11.6492 13.6435 11.5951 13.4903L11.3166 12.7612L9.60136 12.7611L9.32264 13.4907C9.26873 13.6436 9.08939 13.7388 8.85483 13.7388C8.73145 13.7389 8.60949 13.7124 8.49727 13.6612C8.3422 13.5896 8.19314 13.3929 8.36395 12.8624L9.70945 9.32091C9.80423 9.05156 10.0921 8.77406 10.4585 8.76572C10.8259 8.77397 11.1138 9.05156 11.2088 9.32147L12.5537 12.8614C12.7249 13.3931 12.5759 13.5899 12.4208 13.6613C12.3085 13.7124 12.1866 13.7389 12.0632 13.7388ZM11.0208 11.7648L10.459 10.1687L9.89714 11.7648H11.0208ZM13.459 13.6641C13.1617 13.6641 12.9199 13.4327 12.9199 13.1484V9.32812C12.9199 9.01791 13.1775 8.76562 13.4941 8.76562C13.8107 8.76562 14.0684 9.01791 14.0684 9.32812V12.6328H15.2637C15.561 12.6328 15.8027 12.8642 15.8027 13.1484C15.8027 13.4327 15.561 13.6641 15.2637 13.6641H13.459ZM16.584 13.7388C16.2738 13.7388 16.0215 13.4865 16.0215 13.1763V9.32812C16.0215 9.01791 16.2738 8.76562 16.584 8.76562C16.8943 8.76562 17.1465 9.01791 17.1465 9.32812V10.5371L18.7159 8.96775C18.7966 8.88703 18.9075 8.84259 19.0279 8.84259C19.1684 8.84259 19.3094 8.90316 19.415 9.00872C19.5135 9.10716 19.5723 9.23381 19.5804 9.36534C19.5885 9.498 19.5444 9.61959 19.4563 9.70781L18.1744 10.9895L19.559 12.8238C19.6037 12.8826 19.6363 12.9498 19.6548 13.0213C19.6734 13.0928 19.6775 13.1673 19.667 13.2405C19.657 13.3137 19.6325 13.3842 19.5951 13.4479C19.5576 13.5115 19.5079 13.5671 19.4488 13.6115C19.3515 13.6854 19.2326 13.7253 19.1104 13.725C19.0233 13.7254 18.9372 13.7054 18.8592 13.6666C18.7812 13.6277 18.7133 13.5712 18.6611 13.5014L17.3419 11.7535L17.1467 11.9487V13.176C17.1466 13.3252 17.0872 13.4682 16.9817 13.5737C16.8763 13.6792 16.7332 13.7386 16.584 13.7388Z" fill="#FFE812"/>
</g>
<defs>
<clipPath id="clip0_680443_10420">
<rect width="24" height="24" fill="white" transform="translate(0.521484)"/>
</clipPath>
</defs>
</svg>
